# xmcd CD database file
#
# Track frame offsets:
#	150
#	12957
#	26667
#	36397
#	49880
#	63664
#	74707
#	86267
#	98360
#	109565
#	119920
#	131920
#	144585
#	158072
#	168940
#
# Disc length: 2411 seconds
#
# Revision: 2
# Processed by: cddbd v1.5.2PL0 Copyright (c) Steve Scherf et al.
# Submitted via: CDex 1.51
#
DISCID=d309690f
DTITLE=Various Artist - Blues Story #3 - Les Labels de Légende - Chess Records
DYEAR=1998
DGENRE=Blues
TTITLE0=Muddy Waters - I'm Your Hoochie Coochie Man
TTITLE1=Albert King - Searching For A Woman
TTITLE2=Willie Dixon - 29 Ways
TTITLE3=Koko Taylor - Wang Dang Doodle
TTITLE4=Memphis Slim - My Baby
TTITLE5=J.B. Lenoir - Mama Talk To Your Daughter
TTITLE6=Sonny Boy Williamson II - Don't Start Me To Talkin'
TTITLE7=Chuck Berry - You Never Can Tell
TTITLE8=Bo Diddley - Who Do You Love
TTITLE9=Buddy Guy - First Time I Met The Blues
TTITLE10=Little Walter - My Babe
TTITLE11=Jimmy Rodgers - That's All Right
TTITLE12=John Lee Hooker - One Bourbon, One Scotch, One Beer
TTITLE13=Otis Rush - I'm Satisfied
TTITLE14=Howlin' Wolf - How Many More Years
EXTD=YEAR: 1998
EXTT0=
EXTT1=
EXTT2=
EXTT3=
EXTT4=
EXTT5=
EXTT6=
EXTT7=
EXTT8=
EXTT9=
EXTT10=
EXTT11=
EXTT12=
EXTT13=
EXTT14=
PLAYORDER=
